<svg width="100" height="100" viewBox="0 0 100 100" xmlns="http://www.w3.org/2000/svg">
  <defs>
    <pattern id="grid" width="10" height="10" patternUnits="userSpaceOnUse">
      <path d="M 10 0 L 0 0 0 10" fill="none" stroke="rgba(67, 97, 238, 0.1)" stroke-width="0.5"/>
    </pattern>
    <pattern id="dots" width="20" height="20" patternUnits="userSpaceOnUse">
      <circle cx="10" cy="10" r="1" fill="rgba(59, 201, 219, 0.2)"/>
    </pattern>
    <pattern id="circuit" width="100" height="100" patternUnits="userSpaceOnUse">
      <path d="M30,10 L70,10 M50,10 L50,30 M30,30 L70,30 M30,30 L30,70 M30,50 L50,50 M70,30 L70,70 M30,70 L70,70 M50,50 L50,70" stroke="rgba(114, 9, 183, 0.1)" fill="none" stroke-width="1"/>
      <circle cx="30" cy="10" r="2" fill="rgba(67, 97, 238, 0.2)"/>
      <circle cx="70" cy="10" r="2" fill="rgba(67, 97, 238, 0.2)"/>
      <circle cx="30" cy="30" r="2" fill="rgba(67, 97, 238, 0.2)"/>
      <circle cx="50" cy="30" r="2" fill="rgba(67, 97, 238, 0.2)"/>
      <circle cx="70" cy="30" r="2" fill="rgba(67, 97, 238, 0.2)"/>
      <circle cx="30" cy="50" r="2" fill="rgba(67, 97, 238, 0.2)"/>
      <circle cx="50" cy="50" r="2" fill="rgba(67, 97, 238, 0.2)"/>
      <circle cx="30" cy="70" r="2" fill="rgba(67, 97, 238, 0.2)"/>
      <circle cx="50" cy="70" r="2" fill="rgba(67, 97, 238, 0.2)"/>
      <circle cx="70" cy="70" r="2" fill="rgba(67, 97, 238, 0.2)"/>
    </pattern>
  </defs>
  <rect width="100" height="100" fill="url(#grid)"/>
  <rect width="100" height="100" fill="url(#dots)"/>
  <rect width="100" height="100" fill="url(#circuit)"/>
</svg>